<?xml version="1.0" encoding="iso-8859-1"?>
<!-- Generator: Adobe Illustrator 19.0.0, SVG Export Plug-In . SVG Version: 6.00 Build 0)  -->
<svg version="1.1" id="Capa_1" xmlns="http://www.w3.org/2000/svg" xmlns:xlink="http://www.w3.org/1999/xlink" x="0px" y="0px"
	 viewBox="0 0 512 512" style="enable-background:new 0 0 512 512;" xml:space="preserve">
<path style="fill:#73BCFF;" d="M451,76v45l-38.101,30H54.401L0,121V76c0-24.901,20.099-45,45-45h361C430.901,31,451,51.099,451,76z"
	/>
<path style="fill:#3AAAFF;" d="M451,76v45l-38.101,30H226V31h180C430.901,31,451,51.099,451,76z"/>
<path style="fill:#EDE9E8;" d="M0,121v315c0,8.401,6.599,15,15,15h306.099c3.9,0,7.8-1.5,10.501-4.501L446.499,331.6
	C449.5,328.9,451,325,451,321.099V121H0z"/>
<path style="fill:#DFD7D5;" d="M451,121v200.099c0,3.9-1.5,7.8-4.501,10.501L331.601,446.499C328.9,449.5,325,451,321.099,451H226
	V121H451z"/>
<g>
	<path style="fill:#3E5959;" d="M76,91c-8.291,0-15-6.709-15-15V15c0-8.291,6.709-15,15-15s15,6.709,15,15v61
		C91,84.291,84.291,91,76,91z"/>
	<path style="fill:#3E5959;" d="M136,91c-8.291,0-15-6.709-15-15V15c0-8.291,6.709-15,15-15s15,6.709,15,15v61
		C151,84.291,144.291,91,136,91z"/>
	<path style="fill:#3E5959;" d="M196,91c-8.291,0-15-6.709-15-15V15c0-8.291,6.709-15,15-15s15,6.709,15,15v61
		C211,84.291,204.291,91,196,91z"/>
</g>
<g>
	<path style="fill:#384949;" d="M256,91c-8.291,0-15-6.709-15-15V15c0-8.291,6.709-15,15-15c8.291,0,15,6.709,15,15v61
		C271,84.291,264.291,91,256,91z"/>
	<path style="fill:#384949;" d="M316,91c-8.291,0-15-6.709-15-15V15c0-8.291,6.709-15,15-15s15,6.709,15,15v61
		C331,84.291,324.291,91,316,91z"/>
	<path style="fill:#384949;" d="M376,91c-8.291,0-15-6.709-15-15V15c0-8.291,6.709-15,15-15s15,6.709,15,15v61
		C391,84.291,384.291,91,376,91z"/>
</g>
<path style="fill:#FF6C6C;" d="M407,302c-57.9,0-105,47.1-105,105s47.1,105,105,105s105-47.1,105-105S464.9,302,407,302z"/>
<g>
	<path style="fill:#D2C5C2;" d="M136,271H76c-8.291,0-15-6.709-15-15v-60c0-8.291,6.709-15,15-15h60c8.291,0,15,6.709,15,15v60
		C151,264.291,144.291,271,136,271z"/>
	<path style="fill:#D2C5C2;" d="M136,391H76c-8.291,0-15-6.709-15-15v-60c0-8.291,6.709-15,15-15h60c8.291,0,15,6.709,15,15v60
		C151,384.291,144.291,391,136,391z"/>
	<path style="fill:#D2C5C2;" d="M256,181h-60c-8.401,0-15,6.599-15,15v60c0,8.401,6.599,15,15,15h60c8.401,0,15-6.599,15-15v-60
		C271,187.599,264.401,181,256,181z"/>
	<path style="fill:#D2C5C2;" d="M256,301h-60c-8.401,0-15,6.599-15,15v60c0,8.401,6.599,15,15,15h60c8.401,0,15-6.599,15-15v-60
		C271,307.599,264.401,301,256,301z"/>
</g>
<g>
	<path style="fill:#C4B3AF;" d="M376,271h-60c-8.291,0-15-6.709-15-15v-60c0-8.291,6.709-15,15-15h60c8.291,0,15,6.709,15,15v60
		C391,264.291,384.291,271,376,271z"/>
	<path style="fill:#C4B3AF;" d="M271,196v60c0,8.401-6.599,15-15,15h-30v-90h30C264.401,181,271,187.599,271,196z"/>
	<path style="fill:#C4B3AF;" d="M271,316v60c0,8.401-6.599,15-15,15h-30v-90h30C264.401,301,271,307.599,271,316z"/>
</g>
<path style="fill:#FF4949;" d="M512,407c0,57.9-47.1,105-105,105V302C464.9,302,512,349.1,512,407z"/>
<path style="fill:#EDE9E8;" d="M482,407c0,41.4-33.6,75-75,75s-75-33.6-75-75s33.6-75,75-75S482,365.6,482,407z"/>
<path style="fill:#DFD7D5;" d="M482,407c0,41.4-33.6,75-75,75V332C448.4,332,482,365.6,482,407z"/>
<path style="fill:#3E5959;" d="M452,407c0,8.401-6.599,15-15,15h-30c-8.401,0-15-6.599-15-15v-30c0-8.401,6.599-15,15-15
	s15,6.599,15,15v15h15C445.401,392,452,398.599,452,407z"/>
<path style="fill:#384949;" d="M452,407c0,8.401-6.599,15-15,15h-30v-60c8.401,0,15,6.599,15,15v15h15
	C445.401,392,452,398.599,452,407z"/>
<g>
</g>
<g>
</g>
<g>
</g>
<g>
</g>
<g>
</g>
<g>
</g>
<g>
</g>
<g>
</g>
<g>
</g>
<g>
</g>
<g>
</g>
<g>
</g>
<g>
</g>
<g>
</g>
<g>
</g>
</svg>
